<?xml version="1.0" standalone="no"?>
<!DOCTYPE svg PUBLIC "-//W3C//DTD SVG 20010904//EN"
 "http://www.w3.org/TR/2001/REC-SVG-20010904/DTD/svg10.dtd">
<svg version="1.0" xmlns="http://www.w3.org/2000/svg"
 width="200.000000pt" height="200.000000pt" viewBox="0 0 200.000000 200.000000"
 preserveAspectRatio="xMidYMid meet">

<g transform="translate(0.000000,200.000000) scale(0.100000,-0.100000)"
fill="#000000" stroke="none">
<path d="M1213 1539 c-24 -22 -43 -43 -43 -47 0 -4 96 -103 213 -221 l212
-213 -711 6 -711 6 -7 -56 c-3 -30 -4 -59 -2 -63 3 -4 322 -11 708 -15 387 -4
704 -9 706 -10 1 -2 -93 -98 -210 -214 l-213 -211 40 -41 c22 -22 45 -39 51
-38 6 2 141 130 299 285 l289 281 -81 89 c-45 48 -175 181 -290 295 l-208 207
-42 -40z"/>
</g>
</svg>
